<svg width="20" height="20" viewBox="0 0 20 20" fill="none" xmlns="http://www.w3.org/2000/svg">
<path d="M10 0.249695C4.6239 0.249695 0.25 4.6236 0.25 9.99969C0.25 15.3758 4.6239 19.7497 10 19.7497C15.3761 19.7497 19.75 15.3758 19.75 9.99969C19.75 4.6236 15.3761 0.249695 10 0.249695ZM12.2589 5.94126L13.3886 6.92844L9.93812 10.8706L8.80843 9.78969L12.2589 5.94126ZM6.99672 14.0605L3.68922 10.7497L4.75 9.68891L8.05797 12.9997L6.99672 14.0605ZM10.0436 14.0975L6.69765 10.7497L7.7589 9.68938L9.96953 11.9023L15.1787 5.94126L16.3084 6.92844L10.0436 14.0975Z" fill="white"/>
</svg>
