<svg width="25" height="21" viewBox="0 0 25 21" fill="none" xmlns="http://www.w3.org/2000/svg">
<path d="M23.598 7.94042H18.4089L13.6639 0.833754C13.458 0.53042 13.1114 0.378754 12.7647 0.378754C12.418 0.378754 12.0714 0.53042 11.8655 0.844587L7.12054 7.94042H1.93137C1.33554 7.94042 0.848038 8.42792 0.848038 9.02375C0.848038 9.12125 0.858871 9.21875 0.891371 9.31625L3.64304 19.3588C3.8922 20.2688 4.72637 20.9404 5.72304 20.9404H19.8064C20.803 20.9404 21.6372 20.2688 21.8972 19.3588L24.6489 9.31625L24.6814 9.02375C24.6814 8.42792 24.1939 7.94042 23.598 7.94042ZM12.7647 3.39042L15.798 7.94042H9.73137L12.7647 3.39042ZM19.8064 18.7738L5.73387 18.7846L3.35054 10.1071H22.1897L19.8064 18.7738ZM12.7647 12.2738C11.573 12.2738 10.598 13.2488 10.598 14.4404C10.598 15.6321 11.573 16.6071 12.7647 16.6071C13.9564 16.6071 14.9314 15.6321 14.9314 14.4404C14.9314 13.2488 13.9564 12.2738 12.7647 12.2738Z" fill="#834DBB"/>
</svg>
