<svg width="30" height="30" viewBox="0 0 30 30" fill="none" xmlns="http://www.w3.org/2000/svg">
<path d="M5 26.25C5 25.5596 5.55964 25 6.25 25H23.75C24.4404 25 25 25.5596 25 26.25C25 26.9404 24.4404 27.5 23.75 27.5H6.25C5.55964 27.5 5 26.9404 5 26.25Z" fill="#834DBB"/>
<path d="M14.9241 6.69203C14.6801 6.44795 14.2843 6.44795 14.0403 6.69203L9.19188 11.5403C8.9478 11.7844 8.9478 12.1802 9.19188 12.4242L15.0758 18.3081C15.3198 18.5522 15.7156 18.5522 15.9596 18.3081L20.808 13.4598C21.0521 13.2157 21.0521 12.82 20.808 12.5759L14.9241 6.69203Z" fill="#834DBB"/>
<path d="M13.3013 20.6235C13.5065 20.5664 13.5448 20.3127 13.3941 20.162L7.33794 14.1058C7.1873 13.9552 6.93353 13.9935 6.87647 14.1987V14.1987L5.05475 20.7522C4.7682 21.783 5.71693 22.7318 6.74777 22.4452L13.3013 20.6235V20.6235Z" fill="#834DBB"/>
<path d="M17.1357 3.5965C18.6002 2.13205 20.9746 2.13206 22.439 3.59652L23.9035 5.06099C25.368 6.52546 25.368 8.89984 23.9035 10.3643L23.4596 10.8082C23.2155 11.0522 22.8198 11.0522 22.5757 10.8082L16.6918 4.92428C16.4478 4.6802 16.4478 4.28447 16.6919 4.04039L17.1357 3.5965Z" fill="#834DBB"/>
</svg>
