<svg width="20" height="20" viewBox="0 0 20 20" fill="none" xmlns="http://www.w3.org/2000/svg">
<path d="M15.505 3.12444L12.715 0.324438H19.715V7.32444L16.925 4.52444L12.835 8.61444L11.425 7.20444L15.505 3.12444ZM17.715 9.32444V13.4944L19.715 15.4944V9.32444H17.715ZM18.495 19.9344L16.885 18.3244H3.71498C2.60498 18.3244 1.71498 17.4244 1.71498 16.3244V3.15444L0.10498 1.54444L1.51498 0.134438L19.895 18.5144L18.495 19.9344ZM14.885 16.3244L10.005 11.4444L8.41498 13.0344L7.00498 11.6244L8.59498 10.0344L3.71498 5.15444V16.3244H14.885ZM6.54498 2.32444H10.715V0.324438H4.54498L6.54498 2.32444Z" fill="#834DBB"/>
</svg>
