<svg width="21" height="15" viewBox="0 0 21 15" fill="none" xmlns="http://www.w3.org/2000/svg">
<path fill-rule="evenodd" clip-rule="evenodd" d="M0.872803 13.4783C0.872803 12.6678 1.4182 12.0109 2.09098 12.0109H9.40008C10.0729 12.0109 10.6183 12.6678 10.6183 13.4783C10.6183 14.2887 10.0729 14.9456 9.40008 14.9456H2.09098C1.4182 14.9456 0.872803 14.2887 0.872803 13.4783Z" fill="#BCBCBC"/>
<path d="M2.0883 0.271729C1.41586 0.271729 0.870117 0.92868 0.870117 1.73912C0.870117 2.54956 1.41586 3.20651 2.0883 3.20651H19.1428C19.8153 3.20651 20.361 2.54956 20.361 1.73912C20.361 0.92868 19.8153 0.271729 19.1428 0.271729H2.0883ZM2.0883 6.14129C1.41586 6.14129 0.870117 6.79825 0.870117 7.60869C0.870117 8.41913 1.41586 9.07608 2.0883 9.07608H14.2701C14.9426 9.07608 15.4883 8.41913 15.4883 7.60869C15.4883 6.79825 14.9426 6.14129 14.2701 6.14129H2.0883Z" fill="#834DBB"/>
</svg>
