<svg width="21" height="17" viewBox="0 0 21 17" fill="none" xmlns="http://www.w3.org/2000/svg">
<path d="M10.9095 0.997803C7.94051 0.997803 5.43905 2.45182 3.38411 4.84182C2.68174 5.65882 2.06564 6.5318 1.56595 7.4038C1.26293 7.9308 1.07831 8.33981 0.969947 8.59181C0.86158 8.84281 0.86158 9.15279 0.969947 9.40379C1.07831 9.65579 1.26293 10.0638 1.56595 10.5918C2.06564 11.4638 2.68174 12.3368 3.38411 13.1538C3.68613 13.5048 4.01423 13.8538 4.33832 14.1618L3.21352 15.2738C2.8222 15.6638 2.80113 16.3068 3.19245 16.6968C3.58478 17.0878 4.21491 17.1068 4.60724 16.7168L9.49877 11.8098L13.7632 7.59182L18.6547 2.71682C19.046 2.32583 19.046 1.66981 18.6547 1.27881C18.459 1.08381 18.1901 0.997803 17.9333 0.997803C17.6764 0.997803 17.4095 1.12083 17.2129 1.31583L15.9556 2.58581C14.4575 1.59181 12.7136 0.997803 10.9095 0.997803ZM10.9095 2.9978C12.1628 2.9978 13.401 3.37581 14.4896 4.02581L12.9715 5.56081C12.3715 5.21581 11.624 4.9978 10.9095 4.9978C8.69305 4.9978 6.89598 6.78879 6.89598 8.99779C6.89598 9.71479 7.13177 10.4418 7.47894 11.0388L5.74407 12.7338C5.44807 12.4558 5.15911 12.1548 4.8892 11.8418C4.27512 11.1278 3.76238 10.3598 3.32189 9.59181C3.16636 9.32081 3.09915 9.18079 3.00784 8.99779C3.09915 8.81379 3.16636 8.67479 3.32189 8.4038C3.76238 7.6358 4.27512 6.8678 4.8892 6.1538C6.59697 4.1688 8.61077 2.9978 10.9095 2.9978ZM18.8744 5.84182C18.6216 5.79382 18.3507 5.84179 18.1219 5.99779C17.6634 6.30879 17.558 6.91679 17.8711 7.37279C18.2112 7.87079 18.5062 8.38181 18.749 8.84181C18.7871 8.91381 18.7801 8.93679 18.8112 8.99779C18.7199 9.18079 18.6527 9.32081 18.4982 9.59181C18.0567 10.3598 17.544 11.1278 16.9299 11.8418C15.2221 13.8268 13.2083 14.9978 10.9095 14.9978C10.6607 14.9978 10.1329 14.9488 9.62419 14.8728C9.07634 14.7908 8.57765 15.1698 8.49538 15.7168C8.4131 16.2628 8.79338 16.7598 9.34223 16.8418C9.95029 16.9328 10.5272 16.9978 10.9095 16.9978C13.8786 16.9978 16.38 15.5438 18.435 13.1538C19.1383 12.3368 19.7534 11.4638 20.2541 10.5918C20.5561 10.0638 20.7408 9.65579 20.8491 9.40379C20.9575 9.15279 20.9575 8.84281 20.8491 8.59181C20.6184 8.05381 20.1949 7.21679 19.5327 6.24779C19.3761 6.01979 19.1263 5.88882 18.8744 5.84182ZM10.9095 6.99779C11.0641 6.99779 11.3119 7.03081 11.4574 7.06481L8.98504 9.51579C8.90376 9.29379 8.90276 9.15079 8.90276 8.99779C8.90276 7.89279 9.8018 6.99779 10.9095 6.99779Z" fill="#373951"/>
</svg>
