<svg width="17" height="17" viewBox="0 0 17 17" fill="none" xmlns="http://www.w3.org/2000/svg">
<path d="M8.51009 1.38354C4.59797 1.38354 1.42676 4.55475 1.42676 8.46687C1.42676 12.379 4.59797 15.5502 8.51009 15.5502C12.4222 15.5502 15.5934 12.379 15.5934 8.46687C15.5934 4.55475 12.4222 1.38354 8.51009 1.38354ZM8.51009 4.92521C9.68238 4.92521 10.6308 5.87721 10.6351 7.05021C10.6379 7.83575 10.2696 8.49804 9.66113 9.10863C9.53363 9.23684 9.41109 9.36008 9.26234 9.48546C9.19221 9.54496 8.99601 9.68875 8.97476 9.70646C8.67585 9.95862 8.23101 9.9395 7.97884 9.63988C7.72668 9.34096 7.76847 8.87416 8.06738 8.62199C8.09997 8.59437 8.27351 8.45059 8.33301 8.40029C8.45201 8.30042 8.5703 8.20762 8.66521 8.11271C9.03284 7.74296 9.21984 7.38879 9.21842 7.05021C9.21701 6.65637 8.90038 6.34188 8.51009 6.34188C8.18638 6.34188 7.90518 6.56571 7.82372 6.87313C7.72385 7.25137 7.33851 7.48229 6.96026 7.38241C6.58271 7.28254 6.3518 6.87525 6.45167 6.497C6.69605 5.5712 7.53967 4.92521 8.51009 4.92521ZM8.51009 10.5919C8.90109 10.5919 9.21842 10.9092 9.21842 11.3002C9.21842 11.6912 8.90109 12.0085 8.51009 12.0085C8.11909 12.0085 7.80176 11.6912 7.80176 11.3002C7.80176 10.9092 8.11909 10.5919 8.51009 10.5919Z" fill="#FF0000"/>
</svg>
