<svg width="23" height="23" viewBox="0 0 23 23" fill="none" xmlns="http://www.w3.org/2000/svg">
<path d="M17.5417 0.625H3.04167C1.70042 0.625 0.625 1.7125 0.625 3.04167V19.9583C0.625 21.2875 1.70042 22.375 3.04167 22.375H19.9583C21.2875 22.375 22.375 21.2875 22.375 19.9583V5.45833L17.5417 0.625ZM19.9583 19.9583H3.04167V3.04167H16.5388L19.9583 6.46125V19.9583ZM11.5 11.5C9.49417 11.5 7.875 13.1192 7.875 15.125C7.875 17.1308 9.49417 18.75 11.5 18.75C13.5058 18.75 15.125 17.1308 15.125 15.125C15.125 13.1192 13.5058 11.5 11.5 11.5ZM4.25 4.25H15.125V9.08333H4.25V4.25Z" fill="#834DBB"/>
</svg>
