<svg width="19" height="19" viewBox="0 0 19 19" fill="none" xmlns="http://www.w3.org/2000/svg">
<path d="M8.17952 0.790405C4.12942 0.790405 0.846191 4.07391 0.846191 8.12375C0.846191 12.1736 4.12942 15.4571 8.17952 15.4571C9.86317 15.4571 11.459 14.8787 12.6968 13.9254L16.6873 17.9495C17.0453 18.307 17.647 18.307 18.0051 17.9495C18.3631 17.5911 18.3631 16.9898 18.0051 16.6314L13.9869 12.6347C14.9409 11.3972 15.5129 9.80767 15.5129 8.12375C15.5129 4.07391 12.2296 0.790405 8.17952 0.790405ZM8.17952 2.62374C11.2171 2.62374 13.6795 5.08591 13.6795 8.12375C13.6795 11.1616 11.2171 13.6238 8.17952 13.6238C5.14197 13.6238 2.67952 11.1616 2.67952 8.12375C2.67952 5.08591 5.14197 2.62374 8.17952 2.62374Z" fill="#834DBB"/>
</svg>
