<svg width="21" height="17" viewBox="0 0 21 17" fill="none" xmlns="http://www.w3.org/2000/svg">
<path d="M10.9095 0.997803C7.94051 0.997803 5.43905 2.45179 3.38411 4.84179C2.68073 5.65879 2.06565 6.5318 1.56496 7.4038C1.26294 7.9318 1.07831 8.33978 0.969947 8.59178C0.86158 8.84278 0.86158 9.15279 0.969947 9.40379C1.07831 9.65579 1.26294 10.0638 1.56496 10.5918C2.06565 11.4638 2.68073 12.3368 3.38411 13.1538C5.43905 15.5438 7.94051 16.9978 10.9095 16.9978C13.8786 16.9978 16.38 15.5438 18.435 13.1538C19.1373 12.3368 19.7534 11.4638 20.2531 10.5918C20.5561 10.0638 20.7408 9.65579 20.8491 9.40379C20.9575 9.15279 20.9575 8.84278 20.8491 8.59178C20.7408 8.33978 20.5561 7.9318 20.2531 7.4038C19.7534 6.5318 19.1373 5.65879 18.435 4.84179C16.38 2.45179 13.8786 0.997803 10.9095 0.997803ZM10.9095 2.9978C13.2083 2.9978 15.2221 4.1688 16.9299 6.1538C17.544 6.8678 18.0567 7.6358 18.4972 8.40379C18.6527 8.67479 18.7199 8.81479 18.8112 8.99779C18.7199 9.18079 18.6527 9.32078 18.4972 9.59178C18.0567 10.3598 17.544 11.1278 16.9299 11.8418C15.2221 13.8268 13.2083 14.9978 10.9095 14.9978C8.61077 14.9978 6.59697 13.8268 4.8892 11.8418C4.27512 11.1278 3.76239 10.3598 3.32089 9.59178C3.16637 9.32078 3.09915 9.18079 3.00784 8.99779C3.09915 8.81479 3.16637 8.67479 3.32089 8.40379C3.76239 7.6358 4.27512 6.8678 4.8892 6.1538C6.59697 4.1688 8.61077 2.9978 10.9095 2.9978ZM10.9095 4.9978C8.69305 4.9978 6.89598 6.78879 6.89598 8.99779C6.89598 11.2068 8.69305 12.9978 10.9095 12.9978C13.126 12.9978 14.9231 11.2068 14.9231 8.99779C14.9231 8.44579 14.4736 7.99779 13.9197 7.99779C13.3658 7.99779 12.9163 8.44579 12.9163 8.99779C12.9163 10.1028 12.0173 10.9978 10.9095 10.9978C9.80079 10.9978 8.90276 10.1028 8.90276 8.99779C8.90276 7.89279 9.80079 6.99779 10.9095 6.99779C11.1554 6.99779 11.4072 7.03879 11.631 7.12279C12.1487 7.31779 12.7207 7.0458 12.9163 6.5288C13.112 6.0128 12.8391 5.44279 12.3203 5.24779C11.8708 5.07879 11.3982 4.9978 10.9095 4.9978Z" fill="#373951"/>
</svg>
